<svg width="8" height="13" viewBox="0 0 8 13" fill="none" xmlns="http://www.w3.org/2000/svg">
<path d="M8 8.74627C8 9.24378 7.86226 9.71144 7.58678 10.1493C7.32231 10.5871 6.92562 10.9552 6.39669 11.2537C5.87879 11.5522 5.26171 11.7313 4.54545 11.791V13H3.47107V11.791C2.43526 11.7015 1.5978 11.408 0.958678 10.9104C0.319559 10.4129 0 9.75622 0 8.9403H2.01653C2.04959 9.32836 2.18733 9.65174 2.42975 9.91045C2.67218 10.1592 3.01928 10.3184 3.47107 10.3881V7.10448C2.73278 6.93532 2.13223 6.76617 1.66942 6.59701C1.20661 6.41791 0.809917 6.1393 0.479339 5.76119C0.15978 5.38308 0 4.86567 0 4.20896C0 3.38308 0.319559 2.70149 0.958678 2.16418C1.5978 1.61692 2.43526 1.29851 3.47107 1.20896V0H4.54545V1.20896C5.51515 1.28856 6.29201 1.56716 6.87603 2.04478C7.47107 2.51244 7.80716 3.1592 7.8843 3.98507H5.86777C5.83471 3.67662 5.70248 3.40298 5.47107 3.16418C5.23967 2.91542 4.93113 2.74627 4.54545 2.65672V5.8806C5.28375 6.0398 5.8843 6.20895 6.34711 6.38806C6.80992 6.55721 7.2011 6.83085 7.52066 7.20896C7.84022 7.57711 8 8.08955 8 8.74627ZM1.91736 4.1194C1.91736 4.52736 2.04959 4.84577 2.31405 5.07463C2.58953 5.30348 2.97521 5.48756 3.47107 5.62687V2.61194C2.99725 2.66169 2.61708 2.81592 2.33058 3.07463C2.0551 3.33333 1.91736 3.68159 1.91736 4.1194ZM4.54545 10.3881C5.0303 10.3184 5.41047 10.1443 5.68595 9.86567C5.96143 9.57711 6.09917 9.23383 6.09917 8.83582C6.09917 8.43781 5.96143 8.12935 5.68595 7.91045C5.42149 7.68159 5.04132 7.49751 4.54545 7.35821V10.3881Z" fill="white"/>
</svg>
